<?xml version="1.0" encoding="utf-8"?>
<!-- Generator: Adobe Illustrator 23.0.1, SVG Export Plug-In . SVG Version: 6.00 Build 0)  -->
<svg version="1.1" id="Layer_1" xmlns="http://www.w3.org/2000/svg" xmlns:xlink="http://www.w3.org/1999/xlink" x="0px" y="0px"
	 viewBox="0 0 240 38" style="enable-background:new 0 0 240 38;" xml:space="preserve">
<style type="text/css">
	.st0{fill:#1D1D1B;}
	.st1{fill:#00A1CA;}
</style>
<title>logo-blue</title>
<g>
	<g>
		<path class="st0" d="M65.1,3.5h6.1c4.7,0,7.5,1.8,7.5,6.8c0,1.8-0.6,3.9-2.2,4.9c3,0.5,4.3,3.5,4.3,6.3c0,4.9-3.5,7.1-8,7.1h-7.7
			V3.5z M70,14h0.6c2.4,0,3.6-0.7,3.6-3.3c0-2.6-1.5-3.2-3.5-3.2H70V14z M70,24.8h1c2.6,0,4.9-0.3,4.9-3.6c0-3.3-2.7-3.4-5.1-3.4H70
			V24.8z"/>
		<path class="st0" d="M99.5,20.5c0,5.1-3.5,8.7-8.6,8.7c-5.1,0-8.6-3.6-8.6-8.7c0-5.1,3.5-8.7,8.6-8.7C96,11.8,99.5,15.4,99.5,20.5
			z M87.1,20.5c0,2.2,1.5,4.6,3.9,4.6c2.4,0,3.9-2.4,3.9-4.6c0-2.3-1.5-4.6-3.9-4.6C88.5,15.9,87.1,18.3,87.1,20.5z"/>
		<path class="st0" d="M117.8,20.5c0,5.1-3.5,8.7-8.6,8.7c-5.1,0-8.6-3.6-8.6-8.7c0-5.1,3.5-8.7,8.6-8.7
			C114.3,11.8,117.8,15.4,117.8,20.5z M105.3,20.5c0,2.2,1.5,4.6,3.9,4.6s3.9-2.4,3.9-4.6c0-2.3-1.5-4.6-3.9-4.6
			S105.3,18.3,105.3,20.5z"/>
		<path class="st0" d="M124.7,18.3L124.7,18.3l5-6h6.1l-6.9,7.2l7.4,9.2h-6.1l-5.4-7h-0.1v7H120V0.4h4.7V18.3z"/>
		<path class="st0" d="M149.5,8.3c-0.9-1.6-2.1-2.4-4-2.4c-2,0-4.2,1.4-4.2,3.6c0,2,1.9,3,3.5,3.6l1.8,0.7c3.6,1.4,6.2,3.4,6.2,7.6
			c0,4.6-3.5,7.8-8,7.8c-4.1,0-7.2-3-7.8-7l3.2-0.7c0,2.8,2.2,4.8,4.9,4.8c2.7,0,4.6-2.3,4.6-4.9c0-2.7-2.2-3.9-4.3-4.8l-1.7-0.7
			c-2.9-1.2-5.5-2.9-5.5-6.4c0-4.1,3.6-6.5,7.4-6.5c2.8,0,5.1,1.4,6.5,3.8L149.5,8.3z"/>
		<path class="st0" d="M158.7,15.7L158.7,15.7c1.3-1.9,3.2-3.1,5.5-3.1c4.5,0,7.3,3.9,7.3,8.2c0,4.5-2.7,8.4-7.5,8.4
			c-2.2,0-4.1-1.2-5.3-3h-0.1v11.4h-3V13.1h3V15.7z M168.5,20.9c0-3-1.8-5.6-5.1-5.6c-3.1,0-4.9,2.7-4.9,5.6c0,2.9,1.8,5.7,4.9,5.7
			C166.7,26.6,168.5,24,168.5,20.9z"/>
		<path class="st0" d="M177.6,15.6L177.6,15.6c0.8-1.8,2.4-3,4.4-3c0.9,0,1.7,0.3,2.5,0.8l-1.4,2.7c-0.5-0.5-1.1-0.6-1.8-0.6
			c-3.2,0-3.6,3-3.6,5.5v7.7h-3V13.1h3V15.6z"/>
		<path class="st0" d="M190.4,5.9c0,1.1-0.9,2-2.1,2c-1.1,0-2.1-0.9-2.1-2c0-1.2,0.9-2.1,2.1-2.1C189.4,3.8,190.4,4.8,190.4,5.9z
			 M189.8,28.7h-3V13.1h3V28.7z"/>
		<path class="st0" d="M197.6,15.2L197.6,15.2c1-1.7,2.9-2.6,4.8-2.6c4.4,0,5.5,3,5.5,6.8v9.3h-3v-8.9c0-2.7-0.4-4.5-3.4-4.5
			c-3.9,0-3.9,3.4-3.9,6.2v7.2h-3V13.1h3V15.2z"/>
		<path class="st0" d="M215.5,28.7h-3V15.9h-1.6v-2.8h1.6v-6h3v6h2.9v2.8h-2.9V28.7z"/>
		<path class="st0" d="M226.3,16.6c-0.4-0.8-1.1-1.4-2-1.4c-0.8,0-1.6,0.7-1.6,1.5c0,1.4,1.8,2,3.6,2.8c1.8,0.8,3.6,2,3.6,4.4
			c0,3-2.5,5.2-5.4,5.2c-2.3,0-4.6-1.3-5.4-3.5l2.6-1.2c0.6,1.2,1.4,2,2.8,2c1.3,0,2.4-0.9,2.4-2.2c0-0.8-0.4-1.2-1.1-1.7l-2.9-1.6
			c-1.7-0.9-3-1.8-3-3.9c0-2.5,2.1-4.5,4.6-4.5c1.9,0,3.4,1,4.3,2.7L226.3,16.6z"/>
	</g>
	<path class="st1" d="M43.9,14.1c0,0.2-0.2,0.3-0.5,0.3H0.5c-0.3,0-0.5-0.1-0.5-0.3v-2.9c0-0.2,0.2-0.3,0.5-0.3h42.9
		c0.3,0,0.5,0.2,0.5,0.3V14.1z"/>
	<path class="st1" d="M43.9,21.3c0,0.2-0.2,0.3-0.5,0.3H20.8c-0.3,0-0.5-0.1-0.5-0.3v-2.9c0-0.2,0.2-0.3,0.5-0.3h22.6
		c0.3,0,0.5,0.1,0.5,0.3V21.3z"/>
	<path class="st1" d="M43.9,28.7c0,0.2-0.2,0.3-0.5,0.3h-32c-0.3,0-0.5-0.2-0.5-0.3v-2.9c0-0.2,0.2-0.3,0.5-0.3h32
		c0.3,0,0.5,0.2,0.5,0.3V28.7z"/>
	<path class="st1" d="M43.9,6.8c0,0.2-0.2,0.3-0.5,0.3h-32c-0.3,0-0.5-0.1-0.5-0.3V3.9c0-0.2,0.2-0.3,0.5-0.3h32
		c0.3,0,0.5,0.2,0.5,0.3V6.8z"/>
	<g>
		<path class="st0" d="M230.8,8.3c0-1.2,0.4-2.2,1.2-3s1.7-1.2,2.9-1.2c1.1,0,2.1,0.4,2.9,1.2s1.2,1.8,1.2,3c0,1.2-0.4,2.2-1.2,3
			c-0.8,0.8-1.7,1.2-2.9,1.2c-1.1,0-2.1-0.4-2.9-1.2S230.8,9.5,230.8,8.3z M231.5,8.3c0,1,0.3,1.9,1,2.5s1.4,1,2.4,1
			c0.9,0,1.7-0.3,2.4-1s1-1.5,1-2.5c0-1-0.3-1.8-1-2.5s-1.4-1-2.4-1c-0.9,0-1.7,0.3-2.4,1C231.8,6.5,231.5,7.3,231.5,8.3z
			 M234.1,8.8v1.9h-0.9V5.8h1.6c0.6,0,1,0.1,1.4,0.4c0.3,0.3,0.5,0.6,0.5,1.1c0,0.2-0.1,0.4-0.2,0.6c-0.1,0.2-0.3,0.3-0.5,0.4
			c0.2,0.1,0.4,0.3,0.5,0.5c0.1,0.2,0.2,0.5,0.2,0.7v0.3c0,0.2,0,0.3,0,0.4c0,0.1,0,0.2,0.1,0.3v0.1h-0.9c0-0.1-0.1-0.2-0.1-0.4
			c0-0.2,0-0.3,0-0.5V9.6c0-0.3-0.1-0.5-0.2-0.6s-0.3-0.2-0.6-0.2H234.1z M234.1,8h0.8c0.3,0,0.5-0.1,0.7-0.2
			c0.2-0.1,0.3-0.3,0.3-0.5c0-0.3-0.1-0.5-0.2-0.6c-0.1-0.1-0.4-0.2-0.8-0.2h-0.7V8z"/>
	</g>
</g>
</svg>
